<?xml version="1.0" encoding="UTF-8"?>
<svg width="512" height="512" viewBox="0 0 512 512" fill="none" xmlns="http://www.w3.org/2000/svg">
  <circle cx="256" cy="256" r="256" fill="#6A4DFF" opacity="0.1"/>
  <circle cx="256" cy="256" r="200" fill="#6A4DFF" opacity="0.2"/>
  <circle cx="256" cy="256" r="150" fill="#6A4DFF" opacity="0.3"/>
  <path d="M142.5 212.5C142.5 172.5 175 140 215 140H297C337 140 369.5 172.5 369.5 212.5V299.5C369.5 339.5 337 372 297 372H215C175 372 142.5 339.5 142.5 299.5V212.5Z" stroke="#6A4DFF" stroke-width="20"/>
  <circle cx="256" cy="256" r="60" fill="#FF5E7D" opacity="0.8"/>
  <path d="M208 204L304 308" stroke="#57DABE" stroke-width="10" stroke-linecap="round"/>
  <path d="M208 308L304 204" stroke="#57DABE" stroke-width="10" stroke-linecap="round"/>
  <path d="M110 256H142.5" stroke="#6A4DFF" stroke-width="10" stroke-linecap="round"/>
  <path d="M369.5 256H402" stroke="#6A4DFF" stroke-width="10" stroke-linecap="round"/>
  <path d="M256 110V142.5" stroke="#6A4DFF" stroke-width="10" stroke-linecap="round"/>
  <path d="M256 369.5V402" stroke="#6A4DFF" stroke-width="10" stroke-linecap="round"/>
</svg>